<svg aria-hidden="true" style="position:absolute;width:0;height:0;overflow:hidden" xmlns="http://www.w3.org/2000/svg">
  <defs>
    <symbol id="icon-chevron-right" viewBox="0 0 32 32">
      <path stroke-linejoin="round" stroke-linecap="round" stroke-width="4" d="m12 24 8-8-8-8"/>
    </symbol>
    <symbol id="icon-setting" viewBox="0 0 32 32">
      <path d="M16 30.17c-.9 0-1.8-.2-2.5-.61l-7.34-4.23c-2.99-2.01-3.17-2.32-3.17-5.48v-7.7c0-3.16.17-3.47 3.1-5.46l7.4-4.26c1.4-.82 3.6-.82 5 0l7.35 4.24c2.99 2 3.17 2.32 3.17 5.48v7.69c0 3.16-.17 3.47-3.1 5.45l-7.39 4.27c-.72.41-1.63.61-2.52.61zm0-26.34c-.56 0-1.1.1-1.5.33L7.18 8.4C5 9.87 5 9.87 5 12.15v7.69c0 2.28 0 2.28 2.23 3.79l7.28 4.2c.78.45 2.21.45 3 0l7.33-4.24C27 22.12 27 22.12 27 19.84v-7.7c0-2.27 0-2.27-2.23-3.78l-7.28-4.2A3.05 3.05 0 0 0 16 3.83z"/>
      <path d="M16 21a5 5 0 1 1 0-10 5 5 0 0 1 0 10zm0-8a3 3 0 1 0 .01 6.01A3 3 0 0 0 16 13z"/>
    </symbol>
    <symbol id="icon-key" viewBox="0 0 32 32">
      <path stroke-linejoin="round" stroke-linecap="round" stroke-width="2" d="M12 29.33h8c6.67 0 9.33-2.66 9.33-9.33v-8c0-6.67-2.66-9.33-9.33-9.33h-8c-6.67 0-9.33 2.66-9.33 9.33v8c0 6.67 2.66 9.33 9.33 9.33z"/>
      <path stroke-linejoin="round" stroke-linecap="round" stroke-miterlimit="10" stroke-width="2" d="M21.7 18.15a5.53 5.53 0 0 1-5.57 1.37l-3.45 3.44a1.4 1.4 0 0 1-1.1.36l-1.6-.21A1.36 1.36 0 0 1 8.9 22l-.22-1.6a1.5 1.5 0 0 1 .36-1.09l3.44-3.44a5.56 5.56 0 1 1 9.23 2.27zM13.93 21.7l-1.13-1.14"/>
      <path stroke-linejoin="round" stroke-linecap="round" stroke-width="2.67" d="M17.86 14.27h.01"/>
    </symbol>
    <symbol id="icon-d-square" viewBox="0 0 32 32">
      <path d="M20 30.33h-8C4.76 30.33 1.67 27.24 1.67 20v-8C1.67 4.76 4.76 1.67 12 1.67h8c7.24 0 10.33 3.09 10.33 10.33v8c0 7.24-3.09 10.33-10.33 10.33zM12 3.67c-6.15 0-8.33 2.18-8.33 8.33v8c0 6.15 2.18 8.33 8.33 8.33h8c6.15 0 8.33-2.18 8.33-8.33v-8c0-6.15-2.18-8.33-8.33-8.33h-8z"/>
      <path d="M16 17.44a1 1 0 0 1-.5-.13l-7.07-4.08a.99.99 0 0 1-.36-1.36.99.99 0 0 1 1.36-.36l6.56 3.8 6.52-3.78c.48-.28 1.09-.1 1.36.36s.1 1.1-.36 1.36l-7.02 4.06c-.14.08-.32.13-.49.13z"/>
      <path d="M16 24.7a1 1 0 0 1-1-1v-7.26c0-.55.45-1 1-1s1 .45 1 1v7.25a1 1 0 0 1-1 1z"/>
      <path d="M16 25c-.77 0-1.53-.17-2.15-.5L9.6 22.11a4.78 4.78 0 0 1-2.27-3.87v-4.52c0-1.45 1-3.14 2.27-3.86l4.26-2.38a4.77 4.77 0 0 1 4.3 0l4.26 2.38c1.28.7 2.27 2.4 2.27 3.86v4.52c0 1.46-1 3.15-2.27 3.87l-4.26 2.37A4.4 4.4 0 0 1 16 25zm0-16c-.44 0-.87.08-1.17.25l-4.27 2.38a2.79 2.79 0 0 0-1.24 2.1v4.52c0 .75.59 1.75 1.24 2.11l4.27 2.37c.61.35 1.73.35 2.34 0l4.27-2.37a2.79 2.79 0 0 0 1.24-2.1v-4.53c0-.74-.59-1.74-1.24-2.1l-4.27-2.38C16.87 9.08 16.44 9 16 9z"/>
    </symbol>
    <symbol id="icon-discount-shape" viewBox="0 0 32 32">
      <path d="M16 30.33c-.84 0-1.63-.32-2.21-.92l-2.03-2.02a1.52 1.52 0 0 0-.8-.34H8.08a3.13 3.13 0 0 1-3.13-3.13v-2.88c0-.21-.18-.64-.34-.8L2.6 18.21a3.12 3.12 0 0 1 0-4.42l2.02-2.03c.16-.16.34-.59.34-.8V8.08c0-1.73 1.4-3.13 3.13-3.13h2.88c.21 0 .64-.18.8-.34l2.03-2.02a3.22 3.22 0 0 1 4.42 0l2.03 2.02c.16.16.59.34.8.34h2.88c1.73 0 3.13 1.4 3.13 3.13v2.88c0 .21.18.64.34.8l2.02 2.03a3.12 3.12 0 0 1 0 4.42l-2.02 2.03c-.16.16-.34.59-.34.8v2.88c0 1.73-1.4 3.13-3.13 3.13h-2.88c-.21 0-.64.18-.8.34l-2.03 2.02c-.58.6-1.37.92-2.2.92zm-9.97-11.5c.53.53.92 1.46.92 2.21v2.88c0 .63.5 1.13 1.13 1.13h2.88c.75 0 1.68.39 2.21.92L15.2 28c.43.43 1.17.43 1.6 0l2.03-2.03a3.44 3.44 0 0 1 2.21-.92h2.88c.63 0 1.13-.5 1.13-1.13v-2.88c0-.75.39-1.68.92-2.21L28 16.8a1.12 1.12 0 0 0 0-1.6l-2.03-2.03a3.44 3.44 0 0 1-.92-2.21V8.08c0-.63-.5-1.13-1.13-1.13h-2.88c-.75 0-1.68-.39-2.21-.92L16.8 4a1.16 1.16 0 0 0-1.6 0l-2.03 2.03c-.53.53-1.46.92-2.21.92H8.08c-.63 0-1.13.5-1.13 1.13v2.88c0 .75-.39 1.68-.92 2.21L4 15.2a1.12 1.12 0 0 0 0 1.6l2.03 2.03z"/>
      <path d="M20 21.33c-.75 0-1.35-.6-1.35-1.33s.6-1.33 1.34-1.33c.73 0 1.33.6 1.33 1.33s-.59 1.33-1.32 1.33zM12.01 13.33c-.74 0-1.34-.6-1.34-1.33s.6-1.33 1.33-1.33c.73 0 1.33.6 1.33 1.33s-.58 1.33-1.32 1.33zM12 21a1 1 0 0 1-.7-1.7l8-8c.38-.4 1.02-.4 1.4 0s.4 1.02 0 1.4l-8 8c-.2.2-.45.3-.7.3z"/>
    </symbol>
    <symbol id="icon-message-question" viewBox="0 0 32 32">
      <path d="M10.67 29.76a2.35 2.35 0 0 1-2.34-2.33v-1.9c-4.02-.4-6.66-3.37-6.66-7.6v-8c0-4.6 3.08-7.68 7.66-7.68h13.34c4.58 0 7.66 3.08 7.66 7.67v8c0 4.59-3.08 7.67-7.66 7.67h-5.03l-5.68 3.79c-.39.25-.84.38-1.3.38zM9.33 4.24c-3.44 0-5.66 2.23-5.66 5.67v8c0 3.44 2.22 5.66 5.66 5.66a1 1 0 0 1 1 1v2.84c0 .18.11.26.18.3s.2.08.34-.02l5.94-3.94c.16-.11.36-.18.56-.18h5.33c3.44 0 5.67-2.22 5.67-5.66v-8c0-3.44-2.23-5.67-5.67-5.67H9.33z"/>
      <path d="M16 16.15a1 1 0 0 1-1-1v-.28c0-1.55 1.13-2.31 1.56-2.6.5-.34.65-.56.65-.91 0-.67-.54-1.21-1.21-1.21s-1.21.54-1.21 1.21c0 .55-.46 1-1 1s-1-.45-1-1a3.21 3.21 0 0 1 6.42 0c0 1.52-1.12 2.28-1.53 2.56-.52.35-.68.57-.68.95v.28a1 1 0 0 1-1 1zM16 19.47a1 1 0 1 1 0-2 1 1 0 0 1 0 2z"/>
    </symbol>
    <symbol id="icon-search" viewBox="0 0 32 32">
      <path stroke-linejoin="round" stroke-linecap="round" stroke-width="2.67" d="M14.67 25.33a10.67 10.67 0 1 0 0-21.33 10.67 10.67 0 0 0 0 21.33zM28 28l-5.8-5.8"/>
    </symbol>
    <symbol id="icon-user-square" viewBox="0 0 32 32">
      <path d="M20 30.33h-8c-1.76 0-3.23-.17-4.47-.54a1.02 1.02 0 0 1-.72-1.04c.34-4 4.38-7.12 9.2-7.12s8.83 3.12 9.18 7.12c.04.48-.25.9-.72 1.04-1.24.37-2.7.54-4.47.54zM8.96 28.08c.88.17 1.88.25 3.04.25h8c1.16 0 2.16-.08 3.04-.25-.7-2.56-3.63-4.45-7.04-4.45s-6.33 1.89-7.04 4.45z"/>
      <path stroke-linejoin="round" stroke-linecap="round" stroke-width="2" d="M20 2.67h-8c-6.67 0-9.33 2.66-9.33 9.33v8c0 5.04 1.52 7.8 5.14 8.83.3-3.47 3.86-6.2 8.2-6.2s7.88 2.73 8.18 6.2c3.62-1.03 5.14-3.79 5.14-8.83v-8c0-6.67-2.66-9.33-9.33-9.33zm-4 16.22a4.78 4.78 0 1 1 .01-9.56A4.78 4.78 0 0 1 16 18.9z"/>
      <path d="M16 19.9a5.79 5.79 0 0 1 0-11.57 5.78 5.78 0 0 1 0 11.56zm0-9.57a3.78 3.78 0 1 0 .01 7.56 3.78 3.78 0 0 0-.01-7.56z"/>
    </symbol>
    <symbol id="icon-wallet-money" viewBox="0 0 32 32">
      <path stroke-linejoin="round" stroke-linecap="round" stroke-width="2" d="M14.34 22.48v2.7c0 2.3-2.14 4.16-4.76 4.16S4.8 27.48 4.8 25.19v-2.7c0 2.28 2.14 3.91 4.78 3.91 2.62 0 4.76-1.64 4.76-3.92z"/>
      <path stroke-linejoin="round" stroke-linecap="round" stroke-width="2" d="M14.33 18.81a3.5 3.5 0 0 1-.5 1.82c-.8 1.29-2.4 2.1-4.27 2.1s-3.48-.82-4.27-2.1a3.5 3.5 0 0 1-.5-1.82c0-1.14.53-2.17 1.38-2.92.87-.76 2.06-1.21 3.38-1.21s2.5.47 3.37 1.21a3.79 3.79 0 0 1 1.41 2.92z"/>
      <path stroke-linejoin="round" stroke-linecap="round" stroke-width="2" d="M14.34 18.81v3.67c0 2.3-2.14 3.92-4.76 3.92S4.8 24.76 4.8 22.48v-3.67c0-2.29 2.14-4.14 4.78-4.14 1.32 0 2.5.46 3.37 1.2a3.9 3.9 0 0 1 1.39 2.94zM29.33 14.63v2.74c0 .74-.58 1.34-1.33 1.36h-2.61c-1.44 0-2.76-1.05-2.88-2.49-.08-.84.24-1.63.8-2.17.49-.5 1.17-.8 1.92-.8H28c.75.03 1.33.63 1.33 1.36z"/>
      <path stroke-linejoin="round" stroke-linecap="round" stroke-width="2" d="M2.67 14v-2.67c0-3.62 2.18-6.16 5.58-6.58.35-.06.71-.08 1.08-.08h12c.35 0 .68 0 1 .06 3.44.4 5.67 2.95 5.67 6.6v1.94h-2.77c-.75 0-1.43.29-1.92.8a2.68 2.68 0 0 0-.8 2.17c.12 1.44 1.44 2.5 2.88 2.5H28v1.93c0 4-2.67 6.66-6.67 6.66H18"/>
    </symbol>
    <symbol id="icon-menu" viewBox="0 0 24 24">
      <path d="M3 6h18v2.016h-18v-2.016zM3 12.984v-1.969h18v1.969h-18zM3 18v-2.016h18v2.016h-18z"></path>
    </symbol>
    <symbol id="icon-clear" viewBox="0 0 24 24">
     <path d="M18.984 6.422l-5.578 5.578 5.578 5.578-1.406 1.406-5.578-5.578-5.578 5.578-1.406-1.406 5.578-5.578-5.578-5.578 1.406-1.406 5.578 5.578 5.578-5.578z"></path>
     </symbol>
  </defs>
</svg>
